<svg width="430" height="84" viewBox="0 0 430 84" fill="none" xmlns="http://www.w3.org/2000/svg">
<g filter="url(#filter0_d_2313_66)">
<rect width="430" height="80" rx="40" fill="url(#paint0_linear_2313_66)"/>
<path d="M127.999 53V26.8182H137.817C139.828 26.8182 141.516 27.1676 142.879 27.8665C144.252 28.5653 145.287 29.5455 145.986 30.8068C146.693 32.0597 147.047 33.5213 147.047 35.1918C147.047 36.8707 146.689 38.3281 145.973 39.5639C145.266 40.7912 144.222 41.7415 142.841 42.4148C141.46 43.0795 139.764 43.4119 137.753 43.4119H130.76V39.4744H137.114C138.29 39.4744 139.253 39.3125 140.003 38.9886C140.753 38.6562 141.307 38.1747 141.665 37.544C142.031 36.9048 142.215 36.1207 142.215 35.1918C142.215 34.2628 142.031 33.4702 141.665 32.8139C141.299 32.1491 140.74 31.6463 139.99 31.3054C139.24 30.956 138.273 30.7812 137.088 30.7812H132.742V53H127.999ZM141.524 41.1364L148.006 53H142.713L136.347 41.1364H141.524ZM159.62 53.3835C157.651 53.3835 155.951 52.9744 154.519 52.1562C153.096 51.3295 152.001 50.1619 151.234 48.6534C150.467 47.1364 150.083 45.3509 150.083 43.2969C150.083 41.277 150.467 39.5043 151.234 37.9787C152.009 36.4446 153.092 35.2514 154.481 34.3991C155.87 33.5384 157.502 33.108 159.377 33.108C160.588 33.108 161.73 33.304 162.803 33.696C163.886 34.0795 164.84 34.6761 165.667 35.4858C166.502 36.2955 167.159 37.3267 167.636 38.5795C168.113 39.8239 168.352 41.3068 168.352 43.0284V44.4474H152.257V41.3281H163.916C163.907 40.4418 163.715 39.6534 163.34 38.9631C162.965 38.2642 162.441 37.7145 161.768 37.3139C161.103 36.9134 160.328 36.7131 159.441 36.7131C158.495 36.7131 157.664 36.9432 156.948 37.4034C156.232 37.8551 155.674 38.4517 155.274 39.1932C154.882 39.9261 154.681 40.7315 154.673 41.6094V44.3324C154.673 45.4744 154.882 46.4545 155.299 47.2727C155.717 48.0824 156.301 48.7045 157.051 49.1392C157.801 49.5653 158.678 49.7784 159.684 49.7784C160.357 49.7784 160.967 49.6847 161.512 49.4972C162.058 49.3011 162.531 49.0156 162.931 48.6406C163.332 48.2656 163.634 47.8011 163.839 47.2472L168.16 47.733C167.887 48.875 167.367 49.8722 166.6 50.7244C165.842 51.5682 164.87 52.2244 163.686 52.6932C162.501 53.1534 161.146 53.3835 159.62 53.3835ZM180.807 60.7727C179.145 60.7727 177.717 60.5469 176.524 60.0952C175.331 59.652 174.372 59.0554 173.648 58.3054C172.923 57.5554 172.42 56.7244 172.139 55.8125L176.307 54.8026C176.494 55.1861 176.767 55.5653 177.125 55.9403C177.483 56.3239 177.964 56.6392 178.569 56.8864C179.183 57.142 179.954 57.2699 180.883 57.2699C182.196 57.2699 183.283 56.9503 184.143 56.3111C185.004 55.6804 185.435 54.6406 185.435 53.1918V49.4716H185.204C184.966 49.9489 184.616 50.4389 184.156 50.9418C183.704 51.4446 183.104 51.8665 182.354 52.2074C181.612 52.5483 180.679 52.7188 179.554 52.7188C178.045 52.7188 176.677 52.3651 175.45 51.6577C174.231 50.9418 173.26 49.8764 172.535 48.4616C171.819 47.0384 171.462 45.2571 171.462 43.1179C171.462 40.9616 171.819 39.142 172.535 37.6591C173.26 36.1676 174.236 35.0384 175.463 34.2713C176.69 33.4957 178.058 33.108 179.567 33.108C180.717 33.108 181.663 33.304 182.405 33.696C183.155 34.0795 183.751 34.544 184.194 35.0895C184.638 35.6264 184.974 36.1335 185.204 36.6108H185.46V33.3636H190.024V53.3196C190.024 54.9986 189.623 56.3878 188.822 57.4872C188.021 58.5866 186.926 59.4091 185.537 59.9545C184.148 60.5 182.571 60.7727 180.807 60.7727ZM180.845 49.0881C181.825 49.0881 182.66 48.8494 183.351 48.3722C184.041 47.8949 184.565 47.2088 184.923 46.3139C185.281 45.419 185.46 44.3452 185.46 43.0923C185.46 41.8565 185.281 40.7741 184.923 39.8452C184.574 38.9162 184.054 38.196 183.363 37.6847C182.682 37.1648 181.842 36.9048 180.845 36.9048C179.814 36.9048 178.953 37.1733 178.263 37.7102C177.572 38.2472 177.052 38.9844 176.703 39.9219C176.354 40.8509 176.179 41.9077 176.179 43.0923C176.179 44.294 176.354 45.3466 176.703 46.25C177.061 47.1449 177.585 47.8437 178.275 48.3466C178.974 48.8409 179.831 49.0881 180.845 49.0881ZM194.767 53V33.3636H199.395V53H194.767ZM195.317 30.7812L198.18 24.9389H202.706L198.781 30.7812H195.317ZM219.674 38.554L215.455 39.0142C215.335 38.5881 215.127 38.1875 214.828 37.8125C214.539 37.4375 214.147 37.1349 213.652 36.9048C213.158 36.6747 212.553 36.5597 211.837 36.5597C210.874 36.5597 210.064 36.7685 209.408 37.1861C208.76 37.6037 208.441 38.1449 208.449 38.8097C208.441 39.3807 208.649 39.8452 209.075 40.2031C209.51 40.5611 210.226 40.8551 211.223 41.0852L214.573 41.8011C216.431 42.2017 217.811 42.8366 218.715 43.706C219.627 44.5753 220.087 45.7131 220.095 47.1193C220.087 48.3551 219.725 49.446 219.009 50.392C218.301 51.3295 217.317 52.0625 216.056 52.5909C214.794 53.1193 213.345 53.3835 211.709 53.3835C209.306 53.3835 207.371 52.8807 205.905 51.875C204.439 50.8608 203.566 49.4503 203.284 47.6435L207.797 47.2088C208.002 48.0952 208.436 48.7642 209.101 49.2159C209.766 49.6676 210.631 49.8935 211.696 49.8935C212.796 49.8935 213.678 49.6676 214.343 49.2159C215.016 48.7642 215.352 48.206 215.352 47.5412C215.352 46.9787 215.135 46.5142 214.7 46.1477C214.274 45.7812 213.61 45.5 212.706 45.304L209.357 44.6009C207.473 44.2088 206.08 43.5483 205.176 42.6193C204.273 41.6818 203.825 40.4972 203.834 39.0653C203.825 37.8551 204.154 36.8068 204.818 35.9205C205.492 35.0256 206.425 34.3352 207.618 33.8494C208.82 33.3551 210.205 33.108 211.773 33.108C214.074 33.108 215.885 33.598 217.206 34.5781C218.536 35.5582 219.358 36.8835 219.674 38.554ZM233.717 33.3636V36.9432H222.428V33.3636H233.717ZM225.215 28.6591H229.843V47.0938C229.843 47.7159 229.937 48.1932 230.125 48.5256C230.321 48.8494 230.576 49.071 230.892 49.1903C231.207 49.3097 231.556 49.3693 231.94 49.3693C232.23 49.3693 232.494 49.348 232.732 49.3054C232.98 49.2628 233.167 49.2244 233.295 49.1903L234.075 52.8082C233.828 52.8935 233.474 52.9872 233.014 53.0895C232.562 53.1918 232.008 53.2514 231.352 53.2685C230.193 53.3026 229.149 53.1278 228.22 52.7443C227.291 52.3523 226.553 51.7472 226.008 50.929C225.471 50.1108 225.207 49.0881 225.215 47.8608V28.6591ZM237.587 53V33.3636H242.074V36.6364H242.279C242.637 35.5028 243.251 34.6293 244.12 34.0156C244.998 33.3935 245.999 33.0824 247.124 33.0824C247.38 33.0824 247.665 33.0952 247.981 33.1207C248.305 33.1378 248.573 33.1676 248.786 33.2102V37.4673C248.59 37.3991 248.279 37.3395 247.853 37.2884C247.435 37.2287 247.03 37.1989 246.638 37.1989C245.795 37.1989 245.036 37.3821 244.363 37.7486C243.698 38.1065 243.174 38.6051 242.79 39.2443C242.407 39.8835 242.215 40.6207 242.215 41.456V53H237.587ZM257.16 53.3963C255.915 53.3963 254.795 53.1747 253.797 52.7315C252.809 52.2798 252.025 51.6151 251.445 50.7372C250.874 49.8594 250.589 48.777 250.589 47.4901C250.589 46.3821 250.793 45.4659 251.202 44.7415C251.611 44.017 252.17 43.4375 252.877 43.0028C253.584 42.5682 254.381 42.2401 255.268 42.0185C256.163 41.7884 257.087 41.6222 258.042 41.5199C259.192 41.4006 260.126 41.294 260.841 41.2003C261.557 41.098 262.077 40.9446 262.401 40.7401C262.734 40.527 262.9 40.1989 262.9 39.7557V39.679C262.9 38.7159 262.614 37.9702 262.043 37.4418C261.472 36.9134 260.65 36.6491 259.576 36.6491C258.442 36.6491 257.543 36.8963 256.878 37.3906C256.222 37.8849 255.779 38.4687 255.549 39.142L251.228 38.5284C251.569 37.3352 252.131 36.3381 252.915 35.5369C253.699 34.7273 254.658 34.1222 255.792 33.7216C256.925 33.3125 258.178 33.108 259.55 33.108C260.496 33.108 261.438 33.2188 262.376 33.4403C263.313 33.6619 264.17 34.0284 264.945 34.5398C265.721 35.0426 266.343 35.7287 266.812 36.598C267.289 37.4673 267.528 38.554 267.528 39.858V53H263.079V50.3026H262.925C262.644 50.848 262.248 51.3594 261.736 51.8366C261.234 52.3054 260.599 52.6847 259.832 52.9744C259.073 53.2557 258.182 53.3963 257.16 53.3963ZM258.361 49.9957C259.29 49.9957 260.096 49.8125 260.778 49.446C261.459 49.071 261.984 48.5767 262.35 47.9631C262.725 47.3494 262.913 46.6804 262.913 45.956V43.642C262.768 43.7614 262.52 43.8722 262.171 43.9744C261.83 44.0767 261.447 44.1662 261.02 44.2429C260.594 44.3196 260.172 44.3878 259.755 44.4474C259.337 44.5071 258.975 44.5582 258.668 44.6009C257.978 44.6946 257.36 44.848 256.814 45.0611C256.269 45.2741 255.839 45.5724 255.523 45.956C255.208 46.331 255.05 46.8168 255.05 47.4134C255.05 48.2656 255.361 48.9091 255.984 49.3438C256.606 49.7784 257.398 49.9957 258.361 49.9957ZM281.986 33.3636V36.9432H270.698V33.3636H281.986ZM273.485 28.6591H278.113V47.0938C278.113 47.7159 278.207 48.1932 278.394 48.5256C278.59 48.8494 278.846 49.071 279.161 49.1903C279.476 49.3097 279.826 49.3693 280.209 49.3693C280.499 49.3693 280.763 49.348 281.002 49.3054C281.249 49.2628 281.437 49.2244 281.564 49.1903L282.344 52.8082C282.097 52.8935 281.743 52.9872 281.283 53.0895C280.832 53.1918 280.278 53.2514 279.621 53.2685C278.462 53.3026 277.418 53.1278 276.489 52.7443C275.56 52.3523 274.823 51.7472 274.278 50.929C273.741 50.1108 273.476 49.0881 273.485 47.8608V28.6591ZM294.339 53.3835C292.37 53.3835 290.67 52.9744 289.238 52.1562C287.815 51.3295 286.72 50.1619 285.953 48.6534C285.186 47.1364 284.802 45.3509 284.802 43.2969C284.802 41.277 285.186 39.5043 285.953 37.9787C286.728 36.4446 287.811 35.2514 289.2 34.3991C290.589 33.5384 292.221 33.108 294.096 33.108C295.306 33.108 296.448 33.304 297.522 33.696C298.605 34.0795 299.559 34.6761 300.386 35.4858C301.221 36.2955 301.877 37.3267 302.355 38.5795C302.832 39.8239 303.071 41.3068 303.071 43.0284V44.4474H286.975V41.3281H298.634C298.626 40.4418 298.434 39.6534 298.059 38.9631C297.684 38.2642 297.16 37.7145 296.487 37.3139C295.822 36.9134 295.046 36.7131 294.16 36.7131C293.214 36.7131 292.383 36.9432 291.667 37.4034C290.951 37.8551 290.393 38.4517 289.992 39.1932C289.6 39.9261 289.4 40.7315 289.392 41.6094V44.3324C289.392 45.4744 289.6 46.4545 290.018 47.2727C290.436 48.0824 291.019 48.7045 291.769 49.1392C292.519 49.5653 293.397 49.7784 294.403 49.7784C295.076 49.7784 295.686 49.6847 296.231 49.4972C296.776 49.3011 297.25 49.0156 297.65 48.6406C298.051 48.2656 298.353 47.8011 298.558 47.2472L302.879 47.733C302.606 48.875 302.086 49.8722 301.319 50.7244C300.561 51.5682 299.589 52.2244 298.404 52.6932C297.22 53.1534 295.865 53.3835 294.339 53.3835Z" fill="white"/>
</g>
<defs>
<filter id="filter0_d_2313_66" x="0" y="0" width="430" height="84" filterUnits="userSpaceOnUse" color-interpolation-filters="sRGB">
<feFlood flood-opacity="0" result="BackgroundImageFix"/>
<feColorMatrix in="SourceAlpha" type="matrix" values="0 0 0 0 0 0 0 0 0 0 0 0 0 0 0 0 0 0 127 0" result="hardAlpha"/>
<feMorphology radius="14" operator="erode" in="SourceAlpha" result="effect1_dropShadow_2313_66"/>
<feOffset dy="5"/>
<feGaussianBlur stdDeviation="6.5"/>
<feComposite in2="hardAlpha" operator="out"/>
<feColorMatrix type="matrix" values="0 0 0 0 0.160784 0 0 0 0 0.231373 0 0 0 0 0.168627 0 0 0 0.5 0"/>
<feBlend mode="normal" in2="BackgroundImageFix" result="effect1_dropShadow_2313_66"/>
<feBlend mode="normal" in="SourceGraphic" in2="effect1_dropShadow_2313_66" result="shape"/>
</filter>
<linearGradient id="paint0_linear_2313_66" x1="16.8261" y1="19.5122" x2="220.054" y2="254.017" gradientUnits="userSpaceOnUse">
<stop stop-color="#63D737"/>
<stop offset="1" stop-color="#058048"/>
</linearGradient>
</defs>
</svg>
